<svg width="55" height="55" viewBox="0 0 55 55" fill="none" xmlns="http://www.w3.org/2000/svg">
<path d="M27.5 0C12.3367 0 0 12.3367 0 27.5C0 42.6633 12.3367 55 27.5 55C42.6633 55 55 42.6633 55 27.5C55 12.3367 42.6633 0 27.5 0ZM38.0769 29.6154H29.6154V38.0769C29.6154 38.638 29.3925 39.176 28.9958 39.5727C28.5991 39.9694 28.061 40.1923 27.5 40.1923C26.939 40.1923 26.4009 39.9694 26.0042 39.5727C25.6075 39.176 25.3846 38.638 25.3846 38.0769V29.6154H16.9231C16.362 29.6154 15.824 29.3925 15.4273 28.9958C15.0306 28.5991 14.8077 28.061 14.8077 27.5C14.8077 26.939 15.0306 26.4009 15.4273 26.0042C15.824 25.6075 16.362 25.3846 16.9231 25.3846H25.3846V16.9231C25.3846 16.362 25.6075 15.824 26.0042 15.4273C26.4009 15.0306 26.939 14.8077 27.5 14.8077C28.061 14.8077 28.5991 15.0306 28.9958 15.4273C29.3925 15.824 29.6154 16.362 29.6154 16.9231V25.3846H38.0769C38.638 25.3846 39.176 25.6075 39.5727 26.0042C39.9694 26.4009 40.1923 26.939 40.1923 27.5C40.1923 28.061 39.9694 28.5991 39.5727 28.9958C39.176 29.3925 38.638 29.6154 38.0769 29.6154Z" fill="#00b6f0"/>
</svg>
