<svg width="26" height="26" viewBox="0 0 26 26" fill="none" xmlns="http://www.w3.org/2000/svg">
<path d="M23.3564 2.7041C23.2822 2.62257 23.1922 2.55692 23.0919 2.51114C22.9916 2.46536 22.8831 2.44038 22.7729 2.43772C22.6627 2.43506 22.5531 2.45478 22.4507 2.49568C22.3483 2.53657 22.2553 2.5978 22.1773 2.67566L21.5491 3.30078C21.473 3.37696 21.4302 3.48025 21.4302 3.58795C21.4302 3.69565 21.473 3.79894 21.5491 3.87512L22.1249 4.44996C22.1627 4.48789 22.2076 4.51798 22.257 4.53852C22.3064 4.55905 22.3594 4.56962 22.4129 4.56962C22.4664 4.56962 22.5194 4.55905 22.5688 4.53852C22.6182 4.51798 22.6631 4.48789 22.7008 4.44996L23.3132 3.84059C23.623 3.53133 23.6519 3.02758 23.3564 2.7041ZM20.279 4.57031L11.112 13.7211C11.0564 13.7765 11.016 13.8452 10.9947 13.9207L10.5707 15.1836C10.5605 15.2179 10.5598 15.2543 10.5686 15.2889C10.5774 15.3235 10.5954 15.3552 10.6207 15.3804C10.6459 15.4057 10.6776 15.4237 10.7122 15.4325C10.7468 15.4413 10.7832 15.4406 10.8175 15.4304L12.0794 15.0064C12.1549 14.9851 12.2236 14.9447 12.279 14.8891L21.4298 5.72102C21.5144 5.63545 21.5619 5.51994 21.5619 5.39957C21.5619 5.2792 21.5144 5.16369 21.4298 5.07813L20.9245 4.57031C20.8388 4.48488 20.7228 4.43691 20.6018 4.43691C20.4808 4.43691 20.3647 4.48488 20.279 4.57031Z" fill="white"/>
<path d="M19.6188 9.8343L13.4291 16.0362C13.1899 16.276 12.8958 16.454 12.5724 16.5547L11.2572 16.995C10.9451 17.0831 10.6151 17.0864 10.3012 17.0046C9.98736 16.9228 9.701 16.7587 9.47166 16.5294C9.24231 16.3 9.07827 16.0137 8.99642 15.6998C8.91458 15.386 8.91791 15.056 9.00605 14.7438L9.44633 13.4286C9.54674 13.1053 9.72434 12.8113 9.96379 12.5719L16.1657 6.38117C16.2226 6.32439 16.2613 6.25202 16.277 6.17322C16.2927 6.09442 16.2847 6.01273 16.254 5.93848C16.2233 5.86422 16.1713 5.80075 16.1045 5.75608C16.0377 5.7114 15.9591 5.68754 15.8788 5.6875H5.28125C4.52704 5.6875 3.80372 5.98711 3.27042 6.52042C2.73711 7.05372 2.4375 7.77704 2.4375 8.53125V20.7188C2.4375 21.473 2.73711 22.1963 3.27042 22.7296C3.80372 23.2629 4.52704 23.5625 5.28125 23.5625H17.4688C18.223 23.5625 18.9463 23.2629 19.4796 22.7296C20.0129 22.1963 20.3125 21.473 20.3125 20.7188V10.1212C20.3125 10.0409 20.2886 9.96232 20.2439 9.89553C20.1993 9.82875 20.1358 9.77671 20.0615 9.74599C19.9873 9.71528 19.9056 9.70728 19.8268 9.723C19.748 9.73872 19.6756 9.77745 19.6188 9.8343Z" fill="white"/>
</svg>
