<svg width="19" height="16" viewBox="0 0 19 16" fill="none" xmlns="http://www.w3.org/2000/svg">
<path d="M11.0823 16C10.9807 15.9999 10.8798 15.984 10.7835 15.9527L7.6109 14.9269C7.42222 14.8653 7.25833 14.7475 7.1425 14.5902C7.02667 14.4329 6.96481 14.2442 6.96569 14.0508V9.46577C6.96482 9.4639 6.96362 9.46221 6.96213 9.46077L0.286434 1.90538C0.138409 1.73782 0.0429765 1.53251 0.0114685 1.31381C-0.0200396 1.09512 0.0136998 0.872235 0.108681 0.671619C0.203662 0.471003 0.355895 0.301084 0.547307 0.182035C0.738718 0.0629855 0.961268 -0.000192839 1.18853 4.42154e-07H17.8115C18.0387 -0.000192839 18.2613 0.0629855 18.4527 0.182035C18.6441 0.301084 18.7963 0.471003 18.8913 0.671619C18.9863 0.872235 19.02 1.09512 18.9885 1.31381C18.957 1.53251 18.8616 1.73782 18.7136 1.90538L12.0359 9.46154C12.0345 9.46308 12.0333 9.46476 12.0323 9.46654V15.0769C12.0327 15.1982 12.0084 15.3184 11.9608 15.4306C11.9131 15.5427 11.8432 15.6446 11.7549 15.7304C11.6666 15.8162 11.5617 15.8842 11.4463 15.9305C11.3309 15.9767 11.2072 16.0004 11.0823 16Z" fill="black"/>
</svg>
